<?xml version="1.0" encoding="UTF-8"?>
<svg version="1.1" viewBox="0 0 2048 576" width="764" height="215" xmlns="http://www.w3.org/2000/svg">
<path transform="translate(484,134)" d="m0 0h7l7 4 3 7v30h88v-28l2-8 6-5h9l5 3 3 8 1 29 23 2 9 2 11 6 6 5 7 10 4 13 1 14v166l-1 14-4 12-7 10-9 7-9 4-13 2h-179l-13-2-10-5-10-10-6-12-2-13v-180l2-13 6-12 8-9 10-6 11-3 11-1h14v-31l3-6zm48 121-16 5-11 7-10 9-7 9-6 13-2 9v26l5 16 6 10 9 10 13 9 11 5 8 2h24l13-4 11-6 10-8 10-13 5-10 3-11v-27l-5-15-9-13-9-9-13-8-13-5-4-1z" fill="#2F8156"/>
<path transform="translate(901,271)" d="m0 0h16l13 4 8 6 5 4 1-11 5-1h21l1 1v104l-2 13-7 14-8 9-14 8-13 3h-26l-15-4-14-7-4-5 8-16 2-5 4 2 10 6 9 3 8 1h10l11-3 8-7 3-8 1-5 1-15-8 7-8 5-9 3h-18l-12-4-9-6-5-4-7-11-5-14-1-7v-11l2-12 5-12 6-9 8-8 14-7zm13 24-9 2-8 6-5 6-3 8v17l5 10 5 5 8 4 5 1h10l10-3 6-5 5-9 1-3v-17l-4-11-7-7-7-3z" fill="#010302"/>
<path transform="translate(1322,223)" d="m0 0h26l1 1v156h-27l-1-12-3 1-5 6-9 5-16 3-14-1-11-4-11-8-9-12-5-14-2-11v-12l3-15 5-12 8-10 10-8 11-4 5-1h15l13 4 9 6 6 5v-62zm-37 73-7 3-5 3-6 9-3 7-1 5v10l4 11 7 8 8 5 11 2 10-2 10-6 6-8 3-9v-14l-4-11-8-9-10-4z" fill="#010402"/>
<path transform="translate(773,271)" d="m0 0h12l13 3 10 6 7 6 1-12h27v105l-1 1h-26l-1-11h-2l-9 8-10 4-11 2h-9l-10-2-14-7-8-8-6-10-4-11-2-12v-12l3-15 8-16 8-9 9-6 9-3zm12 24-12 3-8 6-5 7-3 10v13l4 11 6 7 12 6 10 1 9-2 9-6 5-6 4-9v-19l-4-9-7-8-9-4z" fill="#000201"/>
<path transform="translate(1038,271)" d="m0 0h14l14 3 11 6 8 7 7 10 4 10 2 11v18l-81 1 3 8 7 8 10 5 5 1h17l13-4 6-4 4 2 8 10 3 4-5 5-16 8-17 3h-12l-14-2-13-5-8-6-5-5-6-7-5-12-3-16 1-12 3-14 6-11 8-9 14-9 11-3zm0 22-10 4-6 5-4 8-1 6 5 1h48l4-1-1-6-4-8-6-5-10-4z" fill="#010302"/>
<path transform="translate(1490,273)" d="m0 0h13l16 1 4 8 10 28 12 30 1 4 3-3 14-36 9-25 3-7h29l-1 5-16 39-14 34-15 37-8 17-9 10-10 4-11 2h-11l-15-3-2-1 1-5 4-15 15 2 9-2 5-5 4-5 2-4v-7l-11-28-16-37-15-34z" fill="#010302"/>
<path transform="translate(1173,271)" d="m0 0h14l11 3 10 6 6 8 3 7 2 19v66h-26l-1-4-1-65-4-8-6-4-6-2h-13l-10 5-4 7-2 8-1 18-1 45h-26l-1-9v-95l1-2h25l1 12 8-6 8-5 8-3z" fill="#010302"/>
<path transform="translate(1465,224)" d="m0 0h14l11 3 1 3-4 20-18 1-5 4-2 11v6l24 1v24l-24 1v81l-1 1h-27l-1-82h-16l-1-1-1-15 1-8 1-1h15l2-21 4-10 7-9 9-6z" fill="#010302"/>
<path transform="translate(1375,273)" d="m0 0h27v103l-1 4h-26l-1-1v-105z" fill="#030805"/>
<path transform="translate(541,268)" d="m0 0h8l1 1 1 9 15 3 2 2v8l-2 3-17-2-1 3v18l15 8 6 5 3 6 1 4v7l-3 8-7 7-13 5-1 9-2 2-5 1-1-1-1-9-6-2-14-4-4-3 2-10 4-1 14 4h4l1-3v-17l-18-10-6-8-1-4v-10l3-8 5-5 8-4 8-2v-7zm-5 24-4 3-1 5 3 8 3 2h3l1-3v-13l-1-2zm12 40v16l5 1 4-3v-11l-4-3z" fill="#34845A"/>
<path transform="translate(484,134)" d="m0 0h7l7 4 3 7v31l-1 17-2 11-4 5-2 1h-10l-5-3-2-9v-54l3-6z" fill="#E27014"/>
<path transform="translate(597,134)" d="m0 0h9l5 3 3 8 1 30-2 31-2 3-13 1-6-2-2-4-1-9v-48l2-8z" fill="#E27115"/>
<path transform="translate(1382,223)" d="m0 0h10l6 3 4 5 2 5v7l-5 8-6 4h-12l-5-3-4-5-2-9 3-9 6-5z" fill="#010302"/>
<path transform="translate(1617,239)" d="m0 0 3 1-1 13-2 1z" fill="#2C7950"/>
<path transform="translate(1630,240)" d="m0 0h2l1 5v9l-2-1z" fill="#236141"/>
<path transform="translate(1605,239)" d="m0 0h3v8l-1 7h-1z" fill="#256644"/>
<path transform="translate(1625,247)" d="m0 0 2 1v4l-3-1z" fill="#133523"/>
</svg>
